PathFileType	4	(X/Y/Z)	C:/Users/beibeiliu/ov580/test_trc/User3\sequence.32_training_dense_left.trc
DataRate	CameraRate	NumFrames	NumMarkers	Units	OrigDataRate	OrigDataStartFrame	OrigNumFrames
120	120	15	19	mm	120	131	209
Frame#	Time	ThumbCMC			ThumbMCP			ThumbIP			ThumbTip			IndexMCP			IndexPIP			IndexTip			MiddleMCP			MiddlePIP			MiddleTip			RingMCP			RingPIP			RingTip			PinkyMCP			PinkyPIP			PinkyTip			BackHand1			BackHand2			BackHand3	
		X0	Y0	Z0	X1	Y1	Z1	X2	Y2	Z2	X3	Y3	Z3	X4	Y4	Z4	X5	Y5	Z5	X6	Y6	Z6	X7	Y7	Z7	X8	Y8	Z8	X9	Y9	Z9	X10	Y10	Z10	X11	Y11	Z11	X12	Y12	Z12	X13	Y13	Z13	X14	Y14	Z14	X15	Y15	Z15	X16	Y16	Z16	X17	Y17	Z17	X18	Y18	Z18	
130	1.08333	-159.652	-39.8644	0.0820048	-143.356	-56.0424	-25.8976	-143.892	-73.3994	-51.4628	-158.66	-88.0004	-66.4244	-171.068	-45.4069	-68.2175	-164.404	-79.4243	-65.7086	-168.679	-73.1452	-32.0631	-195.392	-47.4092	-77.0528	-186.318	-78.0631	-83.6732	-181.505	-88.4756	-46.619	-221.702	-42.9444	-66.6708	-217.481	-53.166	-97.0539	-215.981	-72.3823	-118.797	-237.048	-47.9993	-48.9659	-244.174	-48.0522	-69.0366	-252.31	-52.1496	-92.8694	-223.119	-26.5982	-19.6554	-222.02	-27.0722	12.2443	-189.964	-16.8092	-2.55884	
131	1.09167	-160.591	-39.5553	2.27305	-142.454	-57.1204	-21.6481	-138.683	-76.0284	-44.5502	-154.474	-94.0193	-58.6062	-169.39	-54.4215	-68.895	-158.825	-83.0904	-64.0657	-165.997	-78.5757	-31.2433	-193.157	-57.2408	-78.002	-180.52	-87.5066	-78.8648	-178.434	-93.7528	-39.016	-217.755	-54.5458	-69.3854	-217.199	-67.5377	-94.7628	-213.29	-87.4983	-112.26	-232.193	-57.2055	-48.97	-242.617	-62.2257	-69.8787	-250.848	-68.0937	-94.62	-223.593	-33.3561	-18.4516	-221.576	-26.4654	9.62312	-192.373	-19.0353	-4.92504	
132	1.1	-160.181	-36.8636	0.12031	-137.792	-56.7745	-20.7388	-135.301	-77.3224	-43.062	-147.159	-96.919	-52.9285	-168.785	-59.0172	-66.8439	-156.364	-88.0321	-57.8736	-160.46	-78.9323	-26.5983	-188.901	-66.4994	-76.2972	-175.692	-95.5511	-72.7489	-171.938	-97.4308	-32.0849	-210.638	-63.0578	-70.858	-210.042	-81.294	-92.6784	-201.5	-99.3709	-108.874	-229.214	-66.7905	-49.2512	-236.973	-75.0012	-71.6497	-242.833	-85.3045	-92.9285	-220.24	-39.1285	-22.774	-222.638	-29.302	10.7902	-192.398	-19.4664	-13.1824	
133	1.10833	-156.558	-34.6826	-0.326636	-135.634	-53.9458	-15.7103	-132.184	-77.7062	-36.3655	-144.748	-101.671	-49.6247	-163.341	-60.896	-64.6756	-150.771	-88.9945	-53.0973	-157.604	-76.8722	-21.5944	-185.219	-71.7579	-72.5628	-165.153	-97.9204	-68.5165	-165.337	-101.184	-29.8106	-211.811	-71.8874	-65.3929	-202.245	-88.0035	-87.1447	-191.573	-112.229	-103.236	-228.552	-76.5242	-47.0236	-233.827	-86.3154	-66.7553	-233.662	-96.2165	-86.9387	-220.739	-40.2936	-19.9029	-224.119	-32.0749	7.71485	-195.263	-21.4843	-11.3554	
134	1.11667	-158.878	-32.8218	4.01661	-137.458	-53.9033	-15.6129	-129.784	-76.8837	-32.666	-139.373	-99.7552	-40.419	-159.866	-63.8609	-61.7025	-140.322	-86.8674	-43.6648	-154.463	-77.0147	-18.3562	-177.343	-74.8044	-69.4293	-160.111	-101.291	-63.8648	-155.771	-96.7261	-21.5918	-205.322	-78.3474	-64.1001	-194.036	-96.1964	-83.8941	-182.9	-122.418	-95.5723	-224.485	-83.1907	-48.6077	-223.403	-94.162	-67.8365	-223.262	-107.155	-85.7293	-218.297	-47.9682	-24.0158	-223.177	-33.885	1.7379	-194.211	-21.7288	-15.0688	
135	1.125	-160.194	-28.0404	7.2992	-134.057	-47.4034	-8.58099	-124.65	-73.5542	-27.4521	-130.4	-98.4957	-35.7559	-152.567	-67.3837	-57.9943	-138.863	-86.9912	-37.9344	-153.162	-72.443	-12.8071	-171.653	-77.2617	-64.9929	-150.29	-99.6124	-56.9821	-154.445	-96.1868	-13.6476	-193.731	-81.4719	-63.8198	-186.011	-104.226	-80.0612	-169.931	-124.368	-88.8909	-215.074	-86.5118	-42.4129	-216.903	-102.714	-64.2674	-216.019	-116.889	-80.3461	-215.902	-48.2014	-22.7622	-226.229	-40.9214	1.85225	-194.664	-23.1931	-13.8985	
136	1.13333	-163.111	-28.3147	4.58121	-133.673	-43.1632	-7.95128	-118.865	-63.9474	-19.8116	-124.656	-92.5243	-30.1033	-147.06	-64.8802	-54.2904	-132.532	-83.1432	-34.1054	-148.114	-69.4696	-9.27479	-164.54	-77.7368	-62.0953	-141.106	-98.1112	-49.2876	-143.964	-89.9351	-9.09685	-189.753	-84.9956	-58.5536	-177.467	-102.486	-73.0544	-159.089	-127.782	-81.6434	-209.839	-92.7744	-45.2838	-209.605	-109.107	-58.6083	-203.098	-125.794	-78.0609	-213.558	-49.8326	-20.8372	-226.826	-42.0027	1.64598	-197.328	-25.2944	-14.5834	
137	1.14167	-165.997	-22.8615	5.20243	-134.099	-33.2328	-2.56724	-119.02	-58.3154	-17.0567	-121.65	-84.2624	-22.8171	-145.37	-57.8649	-51.6243	-123.683	-72.6419	-28.6369	-143.044	-58.1485	-6.06863	-160.019	-73.6085	-57.0487	-132.295	-93.6686	-43.975	-139.408	-89.4507	-5.37882	-184.078	-86.7913	-55.074	-168.34	-105.857	-67.9842	-143.992	-125.005	-74.8944	-200.767	-94.8847	-41.9112	-196.733	-113.185	-56.2531	-191.839	-126.116	-69.9976	-212.859	-52.424	-22.7689	-225.585	-44.0133	1.99591	-197.023	-22.8399	-16.3299	
138	1.15	-168.132	-17.2315	8.90262	-135.849	-26.7913	0.0456409	-113.102	-50.5349	-14.503	-114.634	-76.3071	-17.3594	-139.224	-54.9506	-48.9018	-121.178	-68.2968	-23.6465	-143.386	-50.9006	-3.60575	-152.111	-75.3394	-55.8323	-125.903	-88.2091	-38.2983	-132.575	-81.5784	-1.52994	-175.425	-84.4375	-52.7061	-155.287	-102.006	-64.3442	-135.98	-122.291	-66.0454	-190.419	-94.7112	-41.2216	-185.579	-114.338	-53.0759	-178.465	-126.598	-65.0606	-210.436	-57.1138	-26.5644	-224.892	-43.9255	2.22565	-196.065	-23.0717	-17.9	
139	1.15833	-166.455	-10.7092	7.42045	-133.889	-19.3407	-0.497262	-114.129	-41.2308	-10.9375	-113.623	-63.9277	-12.9447	-133.581	-47.1525	-45.8918	-115.9	-56.6852	-19.4627	-139.15	-47.812	-1.60274	-145.565	-72.9808	-53.1282	-120.593	-81.3031	-38.0386	-126.586	-72.0713	0.541489	-165.747	-83.9448	-50.8206	-144.076	-101.138	-60.3472	-119.726	-113.78	-61.0094	-185.649	-92.614	-34.1359	-176.541	-110.686	-47.5092	-163.543	-128.434	-60.9283	-206.75	-54.3231	-21.1328	-222.346	-47.4444	-2.93236	-198.752	-23.6646	-14.6187	
140	1.16667	-170.421	-7.65076	6.81779	-136.604	-10.4646	2.06788	-112.555	-30.06	-8.09416	-108.859	-58.5343	-11.4108	-132.938	-44.2441	-43.0647	-114.7	-50.7194	-16.0188	-139.922	-41.8378	1.09781	-142.845	-63.2351	-49.1635	-115.563	-74.2059	-32.8932	-125.975	-62.4441	5.41838	-159.718	-78.3333	-49.05	-133.911	-93.3337	-57.8569	-109.574	-104.087	-56.1517	-177.615	-92.0726	-33.6438	-166.547	-107.776	-45.2986	-152.428	-119.101	-56.755	-202.911	-54.9709	-21.2761	-221.933	-45.5782	1.86798	-197.516	-19.6992	-18.7006	
141	1.175	-173.867	-1.30209	7.17929	-140.946	-5.03748	1.07908	-112.413	-16.9637	-7.07587	-107.948	-43.3065	-8.08502	-133.382	-33.588	-42.2078	-112.028	-39.1978	-18.9799	-140.351	-29.5483	1.59701	-140.702	-59.4387	-48.0065	-109.086	-60.9621	-27.8361	-121.055	-52.4158	6.38109	-153.801	-78.5373	-47.1295	-131.141	-88.2889	-52.9633	-106.325	-97.5376	-51.9117	-171.546	-92.0662	-33.2931	-160.326	-103.472	-41.5089	-141.715	-117.507	-56.3093	-198.301	-56.6564	-23.0729	-219.677	-49.6728	-1.99942	-199.362	-22.5903	-15.9431	
142	1.18333	-179.959	3.93785	7.18196	-145.423	2.80162	-0.16543	-116.253	-8.52748	-7.26107	-108.535	-34.5358	-7.11595	-134.587	-28.2744	-43.435	-112.902	-31.2885	-17.3471	-138.387	-25.1856	1.52053	-135.286	-51.4235	-46.7172	-108.203	-54.429	-28.7717	-123.095	-45.288	8.36347	-150.8	-70.2389	-44.1695	-125.672	-81.3569	-50.3731	-94.172	-83.1281	-50.9534	-164.982	-89.536	-29.6504	-150.437	-96.9459	-40.0524	-134.499	-112.217	-50.1554	-197.634	-55.7124	-20.7956	-218.847	-53.6529	-1.23499	-203.236	-23.9142	-16.4179	
143	1.19167	-186.328	4.20388	2.56064	-152.719	6.32894	-2.47449	-122.946	1.55479	-8.59266	-110.576	-23.2168	-7.40214	-136.878	-22.0529	-43.3124	-114.721	-18.7853	-19.4401	-142.579	-14.9041	-0.397483	-133.34	-48.8452	-45.9609	-107.539	-43.3643	-26.1174	-123.348	-30.5954	7.92334	-147.941	-67.1137	-41.835	-117.897	-73.7534	-49.0875	-94.5677	-73.4128	-48.5227	-160.771	-83.5173	-23.2846	-142.875	-91.2209	-37.2277	-121.619	-103.904	-48.1488	-195.887	-56.3725	-22.485	-217.507	-56.742	0.922777	-204.784	-26.6267	-16.658	
144	1.2	-193.867	4.40878	0.958803	-159.27	14.4176	-7.37349	-129.27	10.1063	-12.3327	-110.622	-12.9422	-9.86301	-141.569	-17.2415	-45.956	-121.258	-5.52015	-21.8928	-151.014	-5.3725	-3.76615	-136.551	-42.3415	-46.147	-109.599	-32.2775	-30.2617	-127.583	-18.3145	5.52837	-141.942	-61.4378	-43.1506	-120.268	-63.9237	-48.3313	-87.8036	-62.577	-47.669	-154.987	-75.1125	-22.6692	-134.557	-85.5919	-34.7722	-118.718	-92.9749	-43.5483	-194.855	-57.2943	-19.9367	-217.237	-58.3727	1.59666	-206.425	-27.2086	-20.444	
